<?xml version="1.0" encoding="UTF-8"?>
<svg id="Layer_1" xmlns="http://www.w3.org/2000/svg" version="1.1" viewBox="0 0 612 792">
  <!-- Generator: Adobe Illustrator 29.0.1, SVG Export Plug-In . SVG Version: 2.1.0 Build 192)  -->
  <defs>
    <style>
      .st0 {
        fill: none;
      }

      .st0, .st1, .st2 {
        stroke: #231f20;
        stroke-width: 4px;
      }

      .st1 {
        fill: #231f20;
      }

      .st2 {
        fill: #fff;
      }
    </style>
  </defs>
  <path class="st0" d="M367.95,757.66s20.18-50.85-3.84-50.85c-17.47,0,3.84,50.85,3.84,50.85Z"/>
  <path class="st1" d="M420.06,60.62c-30.53-15.35-84.29-17.32-113.29-1.05-29.09-16.32-83.44-14.29-113.95,1.19-.84.42-.77,1.64.12,1.95,15.78,5.53,107.07,40.57,113.83,112.83,5.43-71.85,96.47-106.9,113.15-112.74.99-.35,1.08-1.71.14-2.18Z"/>
  <path class="st0" d="M306.77,235.71c28.53,18.21,27.93,37.12,0,70.2-27.93-33.09-28.53-51.99,0-70.2Z"/>
  <path class="st1" d="M340.34,288.14c34.52,43.88,113.16,35.91,149.33-12.36,42.38-56.57,15.78-187.59-36.43-203.98,26.11,25.5,58.15,113.4,32.56,159.46-31.82,57.28-112.79,77.43-160.49,22.66,2.58,13.72,7.85,25.09,15.04,34.22Z"/>
  <path class="st1" d="M406.32,105.64c76.46-16.79,72.13,72.67,71.3,83.81-.02.21-.3.22-.35.02-9.83-42.2-33.88-78.1-79.88-81.46,3.09-.96,6.07-1.74,8.93-2.37Z"/>
  <path class="st1" d="M392.54,234.5c46.67,9.33,39.48-40.82,16.38-62.84-29.75,1.21-59.44,54.23-16.38,62.84Z"/>
  <path class="st0" d="M386.03,707.11c4.77,18.99-3.25,38.37,18.64,49.49,19.93-39.26-.57-39.53-18.64-49.49-1.34-.74-2.66-1.53-3.95-2.39-5.7-3.8-10.81-9.02-13.83-17.33-12.44-34.22-6.86-82.2,4.25-115.35h0c-59.75,40.48-53.98,79.17-42.98,135.46.45,2.29.9,4.58,1.37,6.88,3.18,15.7,6.73,31.65,9.43,47.67,23.16-18.35,5.45-46.75-10.95-55.25"/>
  <path class="st2" d="M408.62,181.07c-3.27,10.34-1.33,17.83-3.95,29.14-6.34-1.33-16.11-11.1-23.98-10.93,4.14-7.04,21.81-19.97,27.93-18.21Z"/>
  <path class="st0" d="M422.02,61.81c13.94-4.95,25.76-8.28,38.51-11.87-58.28,15.06-187.27,60.27-145.7,177.27-2.43-123.85,124.69-107.64,156.09-182.21,1.64-3.9,3.05-7.91,4.19-12.06,0,0-36.69-15.45-53.08,28.87Z"/>
  <path class="st1" d="M515.17,521.05c-111.1-82.56-117.94-200.76-31.73-237.79,37.63,84.21,43.41,144.31,31.73,237.79-30.8,120.05-115.59,132.43-66.78,189.41-13.69-2.22-41.47,2.3-47.18,3.28-.41.07-.7-.37-.49-.72,13.5-21.95,30.07-40.93,43.5-62.83"/>
  <path class="st0" d="M280.85,723.21c11.9,4.43,13.02,5.96,25.93,6.27,12.91-.31,14.03-1.84,25.93-6.27"/>
  <path class="st0" d="M249.44,706.82c-24.02,0-3.84,50.85-3.84,50.85,0,0,21.31-50.85,3.84-50.85Z"/>
  <path class="st1" d="M288.24,253.92c-47.71,54.77-128.67,34.61-160.49-22.66-25.59-46.07,6.45-133.97,32.56-159.46-52.21,16.39-78.81,147.41-36.43,203.98,36.16,48.27,114.81,56.24,149.33,12.36,7.18-9.13,12.45-20.5,15.04-34.22Z"/>
  <path class="st1" d="M216.16,108.01c-46,3.36-70.06,39.26-79.88,81.46-.05.2-.33.19-.35-.02-.83-11.13-5.16-100.6,71.3-83.81,2.86.63,5.84,1.41,8.93,2.37Z"/>
  <path class="st1" d="M204.63,171.66c-23.1,22.02-30.3,72.16,16.38,62.84,43.06-8.61,13.37-61.62-16.38-62.84Z"/>
  <path class="st0" d="M284.17,706.82c-16.39,8.5-34.1,36.9-10.95,55.25,2.7-16.02,6.25-31.97,9.43-47.67.47-2.3.92-4.6,1.37-6.88,11-56.3,16.77-94.98-42.98-135.46h0c11.1,33.15,16.69,81.13,4.25,115.35-3.02,8.32-8.13,13.53-13.83,17.33-1.29.86-2.62,1.65-3.95,2.39-18.07,9.96-38.58,10.23-18.64,49.49,21.89-11.11,13.87-30.5,18.64-49.49"/>
  <path class="st2" d="M232.86,199.28c-7.87-.17-17.64,9.6-23.98,10.93-2.62-11.31-.68-18.8-3.95-29.14,6.12-1.76,23.79,11.17,27.93,18.21Z"/>
  <path class="st0" d="M138.45,32.94c1.14,4.15,2.54,8.16,4.19,12.06,31.4,74.57,158.52,58.36,156.09,182.21,4.2-14.4,8.21-27.72,8.05-40.03-1.13-87.33-103.61-123.98-153.75-137.24,12.75,3.59,23.67,7.04,37.61,11.99-16.39-44.32-52.18-28.99-52.18-28.99Z"/>
  <path class="st1" d="M98.38,521.05c111.1-82.56,117.93-200.76,31.73-237.79-37.63,84.21-43.41,144.31-31.73,237.79,30.8,120.05,115.59,132.43,66.78,189.41,13.69-2.22,41.47,2.3,47.18,3.28.41.07.7-.37.49-.72-13.5-21.95-30.07-40.93-43.5-62.83"/>
  <path class="st1" d="M386.03,707.5c4.77,18.99-3.25,38.37,18.64,49.49.75-1.47,1.44-2.89,2.07-4.25,16.33-35.04-3.32-35.65-20.72-45.23Z"/>
  <path class="st0" d="M113.28,587.63"/>
  <path class="st1" d="M329.52,707.51c.45,2.29.9,4.58,1.37,6.88,3.18,15.7,6.73,31.65,9.43,47.67,1.51-1.2,2.85-2.43,4.02-3.7,16.85-18.18.5-42.91-14.82-50.86Z"/>
  <path class="st1" d="M364.11,706.82c-17.47,0,3.84,50.85,3.84,50.85,0,0,20.18-50.85-3.84-50.85"/>
  <path class="st1" d="M206.8,752.05c.64,1.36,1.33,2.78,2.07,4.25,21.89-11.11,13.87-30.5,18.64-49.49-17.4,9.59-37.04,10.19-20.72,45.23Z"/>
  <path class="st1" d="M269.21,758.36c1.18,1.27,2.51,2.5,4.02,3.7,2.7-16.02,6.25-31.97,9.43-47.67.47-2.3.92-4.6,1.37-6.88-15.32,7.95-31.67,32.68-14.82,50.86Z"/>
  <path class="st1" d="M249.44,706.82c-24.02,0-3.84,50.85-3.84,50.85,0,0,21.31-50.85,3.84-50.85"/>
</svg>